<svg xmlns="http://www.w3.org/2000/svg" xmlns:xlink="http://www.w3.org/1999/xlink" width="70" height="70" viewBox="0 0 70 70">
  <defs>
    <filter id="Ellipse_2" x="0" y="0" width="70" height="70" filterUnits="userSpaceOnUse">
      <feOffset dy="4" input="SourceAlpha"/>
      <feGaussianBlur stdDeviation="3" result="blur"/>
      <feFlood flood-opacity="0.161"/>
      <feComposite operator="in" in2="blur"/>
      <feComposite in="SourceGraphic"/>
    </filter>
  </defs>
  <g id="audio" transform="translate(-85 -185)">
    <g transform="matrix(1, 0, 0, 1, 85, 185)" filter="url(#Ellipse_2)">
      <g id="Ellipse_2-2" data-name="Ellipse 2" transform="translate(9 5)" fill="#fff" stroke="#1dd950" stroke-width="3">
        <circle cx="26" cy="26" r="26" stroke="none"/>
        <circle cx="26" cy="26" r="24.5" fill="none"/>
      </g>
    </g>
    <path id="Path_1035" data-name="Path 1035" d="M15.376,20.908a5.688,5.688,0,0,0,5.688-5.688V6.688a5.688,5.688,0,1,0-11.376,0V15.22a5.688,5.688,0,0,0,5.688,5.688ZM12.532,6.688a2.844,2.844,0,0,1,5.688,0V15.22a2.844,2.844,0,1,1-5.688,0Zm14.22,8.532a1.422,1.422,0,0,0-2.844,0,8.532,8.532,0,1,1-17.064,0A1.422,1.422,0,1,0,4,15.22,11.377,11.377,0,0,0,13.954,26.5v2.94H11.11a1.422,1.422,0,1,0,0,2.844h8.532a1.422,1.422,0,1,0,0-2.844H16.8V26.5a11.377,11.377,0,0,0,9.952-11.28Z" transform="translate(105 199)" fill="#1dd950"/>
  </g>
</svg>
