<svg xmlns="http://www.w3.org/2000/svg" xmlns:xlink="http://www.w3.org/1999/xlink" width="60" height="60" viewBox="0 0 60 60">
  <defs>
    <filter id="Ellipse_1" x="0" y="0" width="60" height="60" filterUnits="userSpaceOnUse">
      <feOffset input="SourceAlpha"/>
      <feGaussianBlur stdDeviation="2.5" result="blur"/>
      <feFlood flood-opacity="0.161"/>
      <feComposite operator="in" in2="blur"/>
      <feComposite in="SourceGraphic"/>
    </filter>
    <linearGradient id="linear-gradient" x1="0.186" y1="0.94" x2="0.87" y2="0.208" gradientUnits="objectBoundingBox">
      <stop offset="0.067" stop-color="#e83866"/>
      <stop offset="0.801" stop-color="#e57a3c"/>
    </linearGradient>
  </defs>
  <g id="Group_1" data-name="Group 1" transform="translate(-255.5 -276.5)">
    <g transform="matrix(1, 0, 0, 1, 255.5, 276.5)" filter="url(#Ellipse_1)">
      <g id="Ellipse_1-2" data-name="Ellipse 1" transform="translate(7.5 7.5)" fill="#e9edf0" stroke="#a7b5d2" stroke-width="2">
        <circle cx="22.5" cy="22.5" r="22.5" stroke="none"/>
        <circle cx="22.5" cy="22.5" r="21.5" fill="none"/>
      </g>
    </g>
    <path id="Path_994" data-name="Path 994" d="M15.669,2A13.71,13.71,0,0,0,2,15.669a13.275,13.275,0,0,0,3.554,9.159,13.627,13.627,0,0,0,19.274.82l.82-.82a13.622,13.622,0,0,0-.82-19.274A13.275,13.275,0,0,0,15.669,2Zm0,24.6a11.224,11.224,0,0,1-7.654-3,8.255,8.255,0,0,1,10.662-4.511A8.123,8.123,0,0,1,23.188,23.6a10.647,10.647,0,0,1-7.519,3ZM12.936,12.936A2.734,2.734,0,1,1,15.67,15.67a2.734,2.734,0,0,1-2.734-2.734Zm12.166,8.2A11.747,11.747,0,0,0,19.77,16.49a5.293,5.293,0,0,0-.547-7.655,5.537,5.537,0,0,0-7.655.41,5.589,5.589,0,0,0,0,7.245,11.747,11.747,0,0,0-5.331,4.648,10.936,10.936,0,1,1,18.864,0Z" transform="translate(270.001 291.001)" fill="url(#linear-gradient)"/>
  </g>
</svg>
