<svg xmlns="http://www.w3.org/2000/svg" xmlns:xlink="http://www.w3.org/1999/xlink" width="70" height="70" viewBox="0 0 70 70">
  <defs>
    <filter id="Ellipse_2" x="0" y="0" width="70" height="70" filterUnits="userSpaceOnUse">
      <feOffset dy="4" input="SourceAlpha"/>
      <feGaussianBlur stdDeviation="3" result="blur"/>
      <feFlood flood-opacity="0.161"/>
      <feComposite operator="in" in2="blur"/>
      <feComposite in="SourceGraphic"/>
    </filter>
  </defs>
  <g id="wifi" transform="translate(-167 -366)">
    <g transform="matrix(1, 0, 0, 1, 167, 366)" filter="url(#Ellipse_2)">
      <g id="Ellipse_2-2" data-name="Ellipse 2" transform="translate(9 5)" fill="#fff" stroke="#e28519" stroke-width="3">
        <circle cx="26" cy="26" r="26" stroke="none"/>
        <circle cx="26" cy="26" r="24.5" fill="none"/>
      </g>
    </g>
    <path id="wifi-2" data-name="wifi" d="M12,15a3,3,0,1,0,3,3A3,3,0,0,0,12,15Zm0,4a1,1,0,1,1,1-1A1,1,0,0,1,12,19Zm0-8a7.06,7.06,0,0,0-4.95,2.05,1,1,0,1,0,1.41,1.41,5,5,0,0,1,7.08,0A1.015,1.015,0,1,0,17,13.05,7.06,7.06,0,0,0,12,11Zm0-4a11.08,11.08,0,0,0-7.78,3.22,1,1,0,0,0,1.42,1.42,9,9,0,0,1,12.72,0,1,1,0,1,0,1.42-1.42A11.08,11.08,0,0,0,12,7Zm10.61.39a15,15,0,0,0-21.22,0A1,1,0,0,0,2.81,8.81a13,13,0,0,1,18.38,0,1,1,0,1,0,1.42-1.42Z" transform="translate(189.904 385.007)" fill="#e28519"/>
  </g>
</svg>
